<svg xmlns="http://www.w3.org/2000/svg" width="24" height="24" viewBox="0 0 24 24" fill="none" aria-hidden="true">
  <rect width="24" height="24" rx="6" fill="#25D366"/>
  <path fill="#fff" d="M12.04 5c-3.42 0-6.2 2.78-6.2 6.2 0 1.09.28 2.12.78 3.03L5 19l4.9-1.29a6.16 6.16 0 003.14.86c3.42 0 6.2-2.78 6.2-6.2S15.46 5 12.04 5zm3.32 8.87c-.18.5-1.02.96-1.42 1.02-.36.05-.82.08-1.33-.1-.31-.09-.72-.28-1.25-.55-2.2-1.15-3.62-3.84-3.73-4.01-.11-.17-.95-1.27-.95-2.42 0-1.15.6-1.72.81-1.96.21-.24.46-.3.61-.3.15 0 .3 0 .43.01.14 0 .33-.05.52.4.19.45.65 1.59.71 1.8.06.21.1.36.02.58-.08.21-.38.65-.52.89-.14.23-.28.26-.38.43-.1.17-.17.36-.37.55-.2.19-.42.43-.6.58-.2.15-.43.34-.62.45-.2.1-.36.15-.52.23-.16.08-.3.2-.46.22-.16.02-.34.03-.5.02-.16-.01-.5-.19-1.14-.66-.64-.47-1.08-1.05-1.14-1.23-.06-.18-.06-.34.02-.5.08-.16.18-.4.36-.58.18-.18.38-.2.5-.27.13-.07.28-.11.4-.26.12-.15.19-.34.29-.45.1-.11.2-.19.3-.31.1-.12.05-.23.02-.32-.03-.09-.25-.6-.34-.82-.09-.22-.18-.19-.3-.19-.12 0-.26-.01-.4-.01-.14 0-.36.05-.55.27-.19.22-.72.7-.72 1.71s.74 1.99.84 2.13c.1.14 1.45 2.22 3.52 3.12.49.21.87.34 1.17.43.49.16.93.14 1.28.09.39-.06 1.2-.49 1.37-.96.17-.47.17-.88.12-.96-.05-.08-.18-.13-.38-.23z"/>
</svg>
